<?xml version="1.0" encoding="UTF-8" standalone="no"?>
<!-- Created with Inkscape (http://www.inkscape.org/) -->

<svg
   width="40"
   height="40"
   viewBox="0 0 40 40"
   version="1.1"
   id="svg1"
   inkscape:version="1.4.3 (0d15f75, 2025-12-25)"
   sodipodi:docname="TripReady Logo color snap.svg"
   inkscape:export-filename="TripReady Logo color snap.svg"
   inkscape:export-xdpi="3.8099999"
   inkscape:export-ydpi="3.8099999"
   xmlns:inkscape="http://www.inkscape.org/namespaces/inkscape"
   xmlns:sodipodi="http://sodipodi.sourceforge.net/DTD/sodipodi-0.dtd"
   xmlns:xlink="http://www.w3.org/1999/xlink"
   xmlns="http://www.w3.org/2000/svg"
   xmlns:svg="http://www.w3.org/2000/svg">
  <sodipodi:namedview
     id="namedview1"
     pagecolor="#ffffff"
     bordercolor="#000000"
     borderopacity="0.25"
     inkscape:showpageshadow="true"
     inkscape:pageopacity="0.0"
     inkscape:pagecheckerboard="true"
     inkscape:deskcolor="#ffffff"
     inkscape:document-units="px"
     inkscape:zoom="14.265879"
     inkscape:cx="21.800269"
     inkscape:cy="21.905415"
     inkscape:current-layer="g37"
     showguides="true"
     showgrid="true"
     showborder="true"
     borderlayer="true"
     labelstyle="below">
    <sodipodi:guide
       position="-95.999956,-1296"
       orientation="0,-1"
       id="guide32"
       inkscape:locked="false" />
    <inkscape:grid
       id="grid32"
       units="px"
       originx="0"
       originy="0"
       spacingx="32"
       spacingy="32"
       empcolor="#0099e5"
       empopacity="0.30196078"
       color="#0099e5"
       opacity="0.14902"
       empspacing="2"
       enabled="true"
       visible="true" />
    <sodipodi:guide
       position="672.00005,-751.99999"
       orientation="1,0"
       id="guide36"
       inkscape:locked="false" />
    <sodipodi:guide
       position="736.00005,-79.999996"
       orientation="0,-1"
       id="guide37"
       inkscape:locked="false" />
  </sodipodi:namedview>
  <style
     id="style3">
.measure-arrow
{
}
.measure-label
{

}
.measure-line
{
}</style>
  <defs
     id="defs1">
    <inkscape:path-effect
       effect="fillet_chamfer"
       id="path-effect79"
       is_visible="true"
       lpeversion="1"
       nodesatellites_param="F,0,0,1,0,64,0,1 @ F,0,0,1,0,64,0,1 @ F,0,0,1,0,64,0,1 @ F,0,0,1,0,64,0,1 @ F,0,0,1,0,64,0,1 @ F,0,0,1,0,64,0,1 @ F,0,0,1,0,64,0,1"
       radius="64"
       unit="px"
       method="auto"
       mode="F"
       chamfer_steps="1"
       flexible="false"
       use_knot_distance="true"
       apply_no_radius="true"
       apply_with_radius="true"
       only_selected="true"
       hide_knots="false" />
    <inkscape:path-effect
       effect="fillet_chamfer"
       id="path-effect77"
       is_visible="true"
       lpeversion="1"
       nodesatellites_param="F,0,1,1,0,64,0,1 @ F,0,1,1,0,64,0,1 @ F,0,0,1,0,0,0,1 @ F,0,0,1,0,0,0,1"
       radius="64"
       unit="px"
       method="auto"
       mode="F"
       chamfer_steps="1"
       flexible="false"
       use_knot_distance="true"
       apply_no_radius="true"
       apply_with_radius="true"
       only_selected="true"
       hide_knots="false" />
    <inkscape:path-effect
       effect="fillet_chamfer"
       id="path-effect75"
       is_visible="true"
       lpeversion="1"
       nodesatellites_param="F,0,1,1,0,64,0,1 @ F,0,1,1,0,64,0,1 @ F,0,0,1,0,0,0,1 @ F,0,0,1,0,0,0,1"
       radius="64"
       unit="px"
       method="auto"
       mode="F"
       chamfer_steps="1"
       flexible="false"
       use_knot_distance="true"
       apply_no_radius="true"
       apply_with_radius="true"
       only_selected="true"
       hide_knots="false" />
    <inkscape:path-effect
       effect="fillet_chamfer"
       id="path-effect55"
       is_visible="true"
       lpeversion="1"
       nodesatellites_param="F,0,1,1,0,96,0,1 @ F,0,1,1,0,96,0,1 @ F,0,0,1,0,0,0,1 @ F,0,0,1,0,0,0,1"
       radius="96"
       unit="px"
       method="auto"
       mode="F"
       chamfer_steps="1"
       flexible="false"
       use_knot_distance="true"
       apply_no_radius="true"
       apply_with_radius="true"
       only_selected="true"
       hide_knots="false" />
    <inkscape:path-effect
       effect="fillet_chamfer"
       id="path-effect54"
       is_visible="true"
       lpeversion="1"
       nodesatellites_param="F,0,1,1,0,64,0,1 @ F,0,1,1,0,64,0,1 @ F,0,0,1,0,0,0,1 @ F,0,0,1,0,0,0,1"
       radius="64"
       unit="px"
       method="auto"
       mode="F"
       chamfer_steps="1"
       flexible="false"
       use_knot_distance="true"
       apply_no_radius="true"
       apply_with_radius="true"
       only_selected="true"
       hide_knots="false" />
    <inkscape:path-effect
       effect="fillet_chamfer"
       id="path-effect53"
       is_visible="true"
       lpeversion="1"
       nodesatellites_param="F,0,0,1,0,64,0,1 @ F,0,0,1,0,64,0,1 @ F,0,0,1,0,64,0,1 @ F,0,0,1,0,64,0,1 | F,0,0,1,0,64,0,1 @ F,0,0,1,0,64,0,1 @ F,0,0,1,0,64,0,1 @ F,0,0,1,0,64,0,1 | F,0,1,1,0,64,0,1 @ F,0,1,1,0,64,0,1 @ F,0,1,1,0,64,0,1 @ F,0,1,1,0,64,0,1"
       radius="64"
       unit="px"
       method="auto"
       mode="F"
       chamfer_steps="1"
       flexible="false"
       use_knot_distance="true"
       apply_no_radius="true"
       apply_with_radius="true"
       only_selected="true"
       hide_knots="false" />
    <inkscape:path-effect
       effect="fillet_chamfer"
       id="path-effect52"
       is_visible="true"
       lpeversion="1"
       nodesatellites_param="F,0,0,1,0,153.0508,0,1 @ F,0,1,1,0,153.0508,0,1 @ F,0,0,1,0,0,0,1 @ F,0,0,1,0,0,0,1"
       radius="0"
       unit="px"
       method="auto"
       mode="F"
       chamfer_steps="1"
       flexible="false"
       use_knot_distance="true"
       apply_no_radius="true"
       apply_with_radius="true"
       only_selected="false"
       hide_knots="false" />
    <inkscape:path-effect
       effect="fillet_chamfer"
       id="path-effect51"
       is_visible="true"
       lpeversion="1"
       nodesatellites_param="F,0,0,1,0,64,0,1 @ F,0,0,1,0,64,0,1 @ F,0,0,1,0,64,0,1 @ F,0,0,1,0,64,0,1"
       radius="64"
       unit="px"
       method="auto"
       mode="F"
       chamfer_steps="1"
       flexible="false"
       use_knot_distance="true"
       apply_no_radius="true"
       apply_with_radius="true"
       only_selected="false"
       hide_knots="false" />
    <inkscape:path-effect
       effect="fillet_chamfer"
       id="path-effect50"
       is_visible="true"
       lpeversion="1"
       nodesatellites_param="F,0,0,1,0,0,0,1 @ F,0,0,1,0,0,0,1 @ F,0,0,1,0,0,0,1 @ F,0,0,1,0,0,0,1"
       radius="64"
       unit="px"
       method="auto"
       mode="F"
       chamfer_steps="1"
       flexible="false"
       use_knot_distance="true"
       apply_no_radius="true"
       apply_with_radius="true"
       only_selected="false"
       hide_knots="false" />
    <inkscape:path-effect
       effect="fillet_chamfer"
       id="path-effect49"
       is_visible="true"
       lpeversion="1"
       nodesatellites_param="F,0,0,1,0,0,0,1 @ F,0,0,1,0,0,0,1 @ F,0,0,1,0,0,0,1 @ F,0,0,1,0,0,0,1"
       radius="0"
       unit="px"
       method="auto"
       mode="F"
       chamfer_steps="1"
       flexible="false"
       use_knot_distance="true"
       apply_no_radius="true"
       apply_with_radius="true"
       only_selected="false"
       hide_knots="false" />
    <inkscape:path-effect
       effect="fillet_chamfer"
       id="path-effect48"
       is_visible="true"
       lpeversion="1"
       nodesatellites_param="F,0,0,1,0,0,0,1 @ F,0,0,1,0,0,0,1 @ F,0,0,1,0,0,0,1 @ F,0,0,1,0,0,0,1"
       radius="0"
       unit="px"
       method="auto"
       mode="F"
       chamfer_steps="1"
       flexible="false"
       use_knot_distance="true"
       apply_no_radius="true"
       apply_with_radius="true"
       only_selected="false"
       hide_knots="false" />
    <inkscape:path-effect
       effect="fillet_chamfer"
       id="path-effect47"
       is_visible="true"
       lpeversion="1"
       nodesatellites_param="F,0,0,1,0,0,0,1 @ F,0,0,1,0,0,0,1 @ F,0,0,1,0,0,0,1 @ F,0,0,1,0,0,0,1"
       radius="0"
       unit="px"
       method="auto"
       mode="F"
       chamfer_steps="1"
       flexible="false"
       use_knot_distance="true"
       apply_no_radius="true"
       apply_with_radius="true"
       only_selected="false"
       hide_knots="false" />
    <inkscape:path-effect
       effect="fillet_chamfer"
       id="path-effect46"
       is_visible="true"
       lpeversion="1"
       nodesatellites_param="F,0,0,1,0,0,0,1 @ F,0,0,1,0,0,0,1 @ F,0,0,1,0,0,0,1 @ F,0,0,1,0,0,0,1"
       radius="0"
       unit="px"
       method="auto"
       mode="F"
       chamfer_steps="1"
       flexible="false"
       use_knot_distance="true"
       apply_no_radius="true"
       apply_with_radius="true"
       only_selected="false"
       hide_knots="false" />
    <inkscape:path-effect
       effect="fillet_chamfer"
       id="path-effect45"
       is_visible="true"
       lpeversion="1"
       nodesatellites_param="F,0,0,1,0,0,0,1 @ F,0,0,1,0,0,0,1 @ F,0,0,1,0,0,0,1 @ F,0,0,1,0,0,0,1"
       radius="0"
       unit="px"
       method="auto"
       mode="F"
       chamfer_steps="1"
       flexible="false"
       use_knot_distance="true"
       apply_no_radius="true"
       apply_with_radius="true"
       only_selected="false"
       hide_knots="false" />
    <inkscape:path-effect
       effect="fillet_chamfer"
       id="path-effect44"
       is_visible="true"
       lpeversion="1"
       nodesatellites_param="F,0,0,1,0,0,0,1 @ F,0,0,1,0,0,0,1 @ F,0,0,1,0,0,0,1 @ F,0,0,1,0,0,0,1"
       radius="0"
       unit="px"
       method="auto"
       mode="F"
       chamfer_steps="1"
       flexible="false"
       use_knot_distance="true"
       apply_no_radius="true"
       apply_with_radius="true"
       only_selected="false"
       hide_knots="false" />
    <inkscape:path-effect
       effect="fillet_chamfer"
       id="path-effect43"
       is_visible="true"
       lpeversion="1"
       nodesatellites_param="F,0,0,1,0,0,0,1 @ F,0,0,1,0,0,0,1 @ F,0,0,1,0,0,0,1 @ F,0,0,1,0,0,0,1"
       radius="0"
       unit="px"
       method="auto"
       mode="F"
       chamfer_steps="1"
       flexible="false"
       use_knot_distance="true"
       apply_no_radius="true"
       apply_with_radius="true"
       only_selected="false"
       hide_knots="false" />
    <inkscape:path-effect
       effect="fillet_chamfer"
       id="path-effect42"
       is_visible="true"
       lpeversion="1"
       nodesatellites_param="F,0,0,1,0,0,0,1 @ F,0,0,1,0,0,0,1 @ F,0,0,1,0,0,0,1 @ F,0,0,1,0,0,0,1"
       radius="0"
       unit="px"
       method="auto"
       mode="F"
       chamfer_steps="1"
       flexible="false"
       use_knot_distance="true"
       apply_no_radius="true"
       apply_with_radius="true"
       only_selected="false"
       hide_knots="false" />
    <inkscape:path-effect
       effect="fillet_chamfer"
       id="path-effect41"
       is_visible="true"
       lpeversion="1"
       nodesatellites_param="F,0,0,1,0,0,0,1 @ F,0,0,1,0,0,0,1 @ F,0,0,1,0,0,0,1 @ F,0,0,1,0,0,0,1"
       radius="0"
       unit="px"
       method="auto"
       mode="F"
       chamfer_steps="1"
       flexible="false"
       use_knot_distance="true"
       apply_no_radius="true"
       apply_with_radius="true"
       only_selected="false"
       hide_knots="false" />
    <inkscape:path-effect
       effect="offset"
       id="path-effect37"
       is_visible="true"
       lpeversion="1.3"
       linejoin_type="miter"
       unit="px"
       offset="64"
       miter_limit="4"
       attempt_force_join="false"
       update_on_knot_move="true" />
    <inkscape:path-effect
       effect="fillet_chamfer"
       id="path-effect33"
       is_visible="true"
       lpeversion="1"
       nodesatellites_param="F,0,0,1,0,0,0,1 @ F,0,0,1,0,0,0,1 @ F,0,0,1,0,0,0,1 @ F,0,0,1,0,73.576997,0,1 @ F,0,0,1,0,72.639886,0,1 @ F,0,0,1,0,0,0,1 @ F,0,0,1,0,0,0,1"
       radius="0"
       unit="px"
       method="auto"
       mode="F"
       chamfer_steps="1"
       flexible="false"
       use_knot_distance="true"
       apply_no_radius="true"
       apply_with_radius="true"
       only_selected="false"
       hide_knots="false" />
    <inkscape:path-effect
       effect="measure_segments"
       linked_items=""
       id="path-effect14"
       is_visible="true"
       lpeversion="1.3.1"
       unit="px"
       orientation="horizontal"
       coloropacity="#808080ff"
       fontbutton="Arial 8"
       precision="0"
       fix_overlaps="0"
       position="-7"
       text_top_bottom="0"
       helpline_distance="0"
       helpline_overlap="0"
       line_width="0"
       scale="1"
       format="{measure}{unit}"
       blacklist=""
       active_projection="false"
       whitelist="false"
       showindex="false"
       arrows_outside="false"
       flip_side="false"
       scale_sensitive="true"
       local_locale="true"
       rotate_anotation="true"
       hide_back="true"
       hide_arrows="false"
       smallx100="false"
       distance_projection="20"
       angle_projection="0"
       avoid_overlapping="true"
       onbbox="false"
       bboxonly="false"
       centers="false"
       maxmin="false"
       helpdata=""
       coloropacity_opacity_LPE="1" />
    <inkscape:path-effect
       effect="measure_segments"
       linked_items=""
       id="path-effect13"
       is_visible="true"
       lpeversion="1.3.1"
       unit="mm"
       orientation="parallel"
       coloropacity="#000000ff"
       fontbutton="Sans 5"
       precision="2"
       fix_overlaps="0"
       position="5"
       text_top_bottom="0"
       helpline_distance="0"
       helpline_overlap="2"
       line_width="0.25"
       scale="1"
       format="{measure}{unit}"
       blacklist=""
       active_projection="false"
       whitelist="false"
       showindex="false"
       arrows_outside="false"
       flip_side="false"
       scale_sensitive="true"
       local_locale="true"
       rotate_anotation="true"
       hide_back="true"
       hide_arrows="false"
       smallx100="false"
       distance_projection="20"
       angle_projection="0"
       avoid_overlapping="true"
       onbbox="false"
       bboxonly="false"
       centers="false"
       maxmin="false"
       helpdata="" />
    <inkscape:path-effect
       effect="measure_segments"
       linked_items=""
       id="path-effect10"
       is_visible="true"
       lpeversion="1.3.1"
       unit="px"
       orientation="parallel"
       coloropacity="#000000ff"
       fontbutton="Sans 10"
       precision="0"
       fix_overlaps="0"
       position="5"
       text_top_bottom="0"
       helpline_distance="0"
       helpline_overlap="2"
       line_width="0.25"
       scale="1"
       format="{measure}{unit}"
       blacklist=""
       active_projection="true"
       whitelist="false"
       showindex="false"
       arrows_outside="false"
       flip_side="false"
       scale_sensitive="true"
       local_locale="true"
       rotate_anotation="true"
       hide_back="true"
       hide_arrows="false"
       smallx100="false"
       distance_projection="20"
       angle_projection="0"
       avoid_overlapping="true"
       onbbox="false"
       bboxonly="false"
       centers="false"
       maxmin="false"
       helpdata="" />
    <inkscape:path-effect
       effect="tiling"
       id="path-effect9"
       is_visible="true"
       lpeversion="1.3.1"
       unit="px"
       seed="1;1640703103"
       lpesatellites=""
       num_rows="3"
       num_cols="3"
       gapx="0"
       gapy="0"
       offset="0"
       offset_type="false"
       scale="0"
       rotate="0"
       mirrorrowsx="false"
       mirrorrowsy="false"
       mirrorcolsx="false"
       mirrorcolsy="false"
       mirrortrans="false"
       shrink_interp="false"
       split_items="false"
       link_styles="false"
       interpolate_scalex="false"
       interpolate_scaley="true"
       interpolate_rotatex="false"
       interpolate_rotatey="true"
       random_scale="false"
       random_rotate="false"
       random_gap_y="false"
       random_gap_x="false"
       transformorigin="" />
    <inkscape:path-effect
       effect="measure_segments"
       linked_items=""
       id="path-effect6"
       is_visible="true"
       lpeversion="1.3.1"
       unit="px"
       orientation="parallel"
       coloropacity="#000000ff"
       fontbutton="Sans 10"
       precision="0"
       fix_overlaps="0"
       position="5"
       text_top_bottom="0"
       helpline_distance="0"
       helpline_overlap="2"
       line_width="0.25"
       scale="1"
       format="{measure}{unit}"
       blacklist=""
       active_projection="false"
       whitelist="false"
       showindex="false"
       arrows_outside="false"
       flip_side="false"
       scale_sensitive="true"
       local_locale="true"
       rotate_anotation="true"
       hide_back="true"
       hide_arrows="false"
       smallx100="false"
       distance_projection="20"
       angle_projection="0"
       avoid_overlapping="true"
       onbbox="false"
       bboxonly="false"
       centers="false"
       maxmin="false"
       helpdata="" />
    <inkscape:path-effect
       effect="parallel"
       offset_pt="109.19448,130.55282"
       id="path-effect2"
       is_visible="true"
       lpeversion="1"
       length-left="50"
       length-right="50" />
    <inkscape:path-effect
       effect="parallel"
       offset_pt="108.67401,99.844925"
       id="path-effect1"
       is_visible="true"
       lpeversion="1"
       length-left="150"
       length-right="150" />
    <linearGradient
       inkscape:collect="always"
       xlink:href="#linearGradient5"
       id="linearGradient6"
       x1="879.99939"
       y1="0.40054706"
       x2="879.99939"
       y2="1343.9991"
       gradientUnits="userSpaceOnUse"
       gradientTransform="translate(272.29452,-6.9329053e-5)" />
    <linearGradient
       id="linearGradient5"
       inkscape:collect="always">
      <stop
         style="stop-color:#f7b750;stop-opacity:1"
         offset="0"
         id="stop5" />
      <stop
         style="stop-color:#e35a2d;stop-opacity:1"
         offset="1"
         id="stop6" />
    </linearGradient>
    <inkscape:path-effect
       effect="fillet_chamfer"
       id="path-effect53-4"
       is_visible="true"
       lpeversion="1"
       nodesatellites_param="F,0,0,1,0,64,0,1 @ F,0,0,1,0,64,0,1 @ F,0,0,1,0,64,0,1 @ F,0,0,1,0,64,0,1 | F,0,0,1,0,64,0,1 @ F,0,0,1,0,64,0,1 @ F,0,0,1,0,64,0,1 @ F,0,0,1,0,64,0,1 | F,0,1,1,0,64,0,1 @ F,0,0,1,0,64,0,1 @ F,0,1,1,0,64,0,1 @ F,0,0,1,0,64,0,1"
       radius="64"
       unit="px"
       method="auto"
       mode="F"
       chamfer_steps="1"
       flexible="false"
       use_knot_distance="true"
       apply_no_radius="true"
       apply_with_radius="true"
       only_selected="true"
       hide_knots="false" />
    <linearGradient
       inkscape:collect="always"
       xlink:href="#linearGradient5"
       id="linearGradient6-7"
       x1="879.99939"
       y1="0.40054706"
       x2="879.99939"
       y2="1343.9991"
       gradientUnits="userSpaceOnUse" />
  </defs>
  <g
     inkscape:groupmode="layer"
     id="layer2"
     inkscape:label="Layer 2"
     transform="translate(-159.99994,-159.99996)">
    <g
       id="g37"
       style="display:inline;stroke-width:2.61796"
       transform="matrix(0.38193934,0,0,0.38201086,223.89357,223.84695)">
      <g
         id="g1"
         transform="matrix(0.03968254,0,0,0.03968254,-160.64898,-160.50167)">
        <rect
           style="vector-effect:non-scaling-stroke;fill:#ffffff;fill-rule:evenodd;stroke:none;stroke-width:2.60047;stroke-dasharray:none;-inkscape-stroke:hairline"
           id="rect1"
           width="2639.1626"
           height="2638.6685"
           x="-167.28737"
           y="-167.13397"
           rx="329.89532"
           ry="329.83356" />
        <g
           id="text1"
           style="font-size:374.748px;font-family:Comfortaa;-inkscape-font-specification:'Comfortaa, @wght=500';font-variation-settings:'wght' 500;white-space:pre;fill:#171fa7"
           inkscape:label="Caption"
           aria-label="TripReady"
           transform="translate(272.29452,-6.9329053e-5)">
          <path
             style="font-family:Lexend;-inkscape-font-specification:'Lexend, @wght=300';font-variation-settings:'wght' 300;fill:#e35a2d"
             d="M 75.227842,2217.8081 V 1983.9654 H 0.27824528 v -28.4809 H 182.40577 v 28.4809 h -77.94758 v 233.8427 z m 122.917568,0 v -195.6184 h 28.1061 l 0.7495,52.0899 -2.99798,-7.1202 q 4.12222,-13.1162 13.11618,-24.3586 9.36869,-11.2424 22.11013,-17.9879 12.74143,-6.7455 28.1061,-6.7455 6.37071,0 11.99193,1.1243 5.62122,0.7495 9.3687,2.2485 l -7.86971,31.4788 q -4.87172,-2.2485 -10.11819,-2.998 -4.87173,-1.1242 -9.3687,-1.1242 -12.74143,0 -22.85963,4.4969 -10.1182,4.497 -17.23841,12.7415 -7.12021,7.8697 -10.86769,18.3626 -3.74748,10.493 -3.74748,22.4849 v 110.9254 z m 147.27565,0 v -195.6184 h 28.1061 v 195.6184 z m 13.86568,-237.965 q -10.49295,0 -16.11417,-5.2464 -5.24647,-5.6213 -5.24647,-14.99 0,-9.3687 5.62122,-14.9899 5.62122,-5.6212 15.73942,-5.6212 10.11819,0 15.73941,5.6212 5.62122,5.2465 5.62122,14.9899 0,8.994 -5.62122,14.6152 -5.62122,5.6212 -15.73941,5.6212 z m 75.69939,320.4096 v -278.063 h 28.1061 l 0.74949,47.593 -5.24647,0.7494 q 3.37273,-14.2404 14.61517,-25.8576 11.24244,-11.9919 27.35661,-19.1121 16.11416,-7.1202 34.10206,-7.1202 26.23236,0 46.8435,13.1162 20.98589,13.1161 33.35257,35.9758 12.36668,22.8596 12.36668,52.4647 0,29.2303 -11.99193,52.09 -11.99194,22.8596 -32.97782,36.3505 -20.98589,13.1162 -47.21825,13.1162 -18.36265,0 -34.85156,-7.495 -16.48891,-7.4949 -28.1061,-19.4869 -11.61719,-12.3667 -15.36467,-26.6071 h 6.74547 v 132.2861 z m 95.56073,-105.679 q 19.86165,0 35.22632,-9.7434 15.36466,-9.7435 24.35861,-26.6071 8.99396,-16.8637 8.99396,-38.2243 0,-21.7354 -8.99396,-38.5991 -8.99395,-16.8636 -24.35861,-26.6071 -15.36467,-9.7434 -35.22632,-9.7434 -19.86164,0 -35.60105,9.7434 -15.36467,9.3687 -24.35862,26.2324 -8.99395,16.8637 -8.99395,38.599 0,21.7354 8.99395,38.5991 8.99395,16.8636 24.35862,26.6071 15.73941,9.7434 35.60105,9.7434 z"
             id="path1" />
          <path
             style="font-family:Lexend;-inkscape-font-specification:'Lexend, @wght=300';font-variation-settings:'wght' 300"
             d="m 679.32174,2217.8081 v -262.3236 h 102.68095 q 22.85962,0 41.22227,10.8677 18.7374,10.493 29.6051,28.8556 10.86769,18.3627 10.86769,41.597 0,21.7354 -10.49295,39.3486 -10.49294,17.6131 -28.48084,28.1061 -17.98791,10.1182 -40.47279,10.1182 h -75.69909 v 103.4304 z m 160.01739,0 -65.95565,-115.4224 28.1061,-9.7434 72.70111,125.1658 z M 708.55208,2085.8968 h 78.32233 q 13.86568,0 24.35862,-6.3707 10.49294,-6.3707 16.48891,-17.2384 5.99597,-11.2424 5.99597,-25.4829 0,-15.3646 -7.12021,-27.3566 -7.12022,-11.9919 -19.86165,-18.7374 -12.36668,-6.7454 -28.48084,-6.7454 h -69.70313 z m 285.55776,135.6588 q -29.23035,0 -52.08997,-12.7414 -22.48488,-12.7415 -35.22631,-35.6011 -12.74144,-22.8596 -12.74144,-52.4647 0,-22.8596 7.12022,-41.2223 7.12021,-18.7374 19.86164,-32.6031 13.11618,-13.8657 31.10408,-21.3606 17.9879,-7.8697 38.97379,-7.8697 19.86165,0 35.97585,7.1202 16.4889,7.1202 28.1061,19.8616 11.9919,12.3667 17.9879,29.6051 5.9959,17.2384 5.2464,37.8496 l -0.3747,13.1162 H 915.03801 l -4.12223,-23.6092 h 145.77692 l -6.7454,6.3707 v -8.9939 q -0.7495,-13.4909 -7.8697,-25.8576 -7.1202,-12.7414 -20.2364,-20.6112 -12.7414,-7.8697 -30.72935,-7.8697 -20.98589,0 -36.35055,8.6192 -15.36467,8.2445 -23.60913,24.7334 -8.24445,16.4889 -8.24445,40.8475 0,23.2344 8.99395,40.4728 8.99395,16.8637 25.48286,26.2324 16.86366,9.3687 40.47279,9.3687 13.86568,0 27.35658,-4.497 13.8657,-4.8717 30.3546,-18.7374 l 14.6152,20.2364 q -8.6192,8.6192 -20.6112,15.3647 -11.9919,6.3707 -26.2323,10.4929 -14.2404,3.7475 -29.23036,3.7475 z m 200.86496,0 q -25.4829,0 -46.094,-13.1162 -20.6112,-13.4909 -32.6031,-36.3505 -11.9919,-23.2344 -11.9919,-52.4648 0,-29.6051 12.3667,-52.4647 12.3666,-22.8596 32.9778,-35.9758 20.9859,-13.1162 46.8435,-13.1162 15.3646,0 28.4808,4.497 13.1162,4.497 23.2344,12.7414 10.4929,7.8697 17.2384,18.7374 7.1202,10.493 9.7435,22.8597 l -8.2445,-4.1223 1.1242,-50.5909 h 28.1061 v 195.6184 h -28.4808 v -47.9677 l 7.495,-4.8718 q -2.6233,11.2425 -10.1182,21.7354 -7.495,10.1182 -18.3627,17.9879 -10.4929,7.8697 -23.9839,12.3667 -13.1161,4.497 -27.7313,4.497 z m 6.3707,-26.9819 q 19.4869,0 34.8516,-9.3687 15.3646,-9.7434 23.9838,-26.6071 8.994,-17.2384 8.994,-38.9738 0,-21.7353 -8.994,-38.599 -8.6192,-16.8637 -23.9838,-26.6071 -15.3647,-9.7435 -34.8516,-9.7435 -19.8616,0 -35.2263,9.7435 -14.9899,9.7434 -23.9839,26.6071 -8.6192,16.8637 -8.6192,38.599 0,21.3607 8.6192,38.5991 8.6192,16.8636 23.9839,26.6071 15.3647,9.7434 35.2263,9.7434 z m 228.9714,26.9819 q -26.6071,0 -47.9678,-13.1162 -20.9858,-13.1162 -33.3525,-35.9758 -11.992,-23.2344 -11.992,-52.4647 0,-29.6051 12.3667,-52.4647 12.3667,-23.2344 33.3526,-36.3506 20.9859,-13.1162 47.2182,-13.1162 14.6152,0 28.1061,4.497 13.8657,4.497 24.7334,12.7414 10.8677,7.8697 17.9879,18.3627 7.1202,10.1182 8.6192,21.3606 l -8.6192,-2.998 v -131.5365 h 28.1061 v 277.3135 h -27.7313 l -0.7495,-48.7172 7.1202,-2.6233 q -1.499,10.493 -8.6192,20.6112 -6.7455,9.7434 -17.2384,17.6131 -10.493,7.8697 -23.9839,12.3667 -13.1162,4.497 -27.3566,4.497 z m 4.1222,-25.8576 q 19.4869,0 34.8516,-9.7435 15.3646,-9.7434 23.9838,-26.9818 8.994,-17.2384 8.994,-39.3486 0,-22.1101 -8.994,-38.9738 -8.6192,-17.2384 -23.9838,-26.9818 -15.3647,-10.1182 -34.8516,-10.1182 -20.2364,0 -35.601,10.1182 -14.99,9.7434 -23.9839,26.9818 -8.6192,16.8637 -8.6192,38.9738 0,21.7354 8.6192,38.9738 8.6192,17.2384 23.9839,27.3566 15.3646,9.7435 35.601,9.7435 z m 182.1277,108.3021 37.8495,-92.188 2.6232,26.6071 -98.1839,-216.2295 h 31.8536 l 67.0798,149.8992 q 2.998,5.9959 5.996,14.2404 2.998,7.8697 5.6212,15.7394 l -10.4929,-1.1243 q 2.6232,-6.3707 4.8717,-13.1161 2.6232,-6.7455 4.8717,-13.1162 l 58.8355,-152.5224 h 32.2283 l -79.0718,195.6184 -33.7273,86.192 z"
             id="path2" />
        </g>
        <path
           id="path77"
           style="display:inline;vector-effect:non-scaling-stroke;fill:url(#linearGradient6);fill-opacity:1;fill-rule:evenodd;stroke:none;stroke-width:0.322086;-inkscape-stroke:hairline"
           d="M 1088.3507,2.3252853 C 899.54563,16.073316 720.12612,90.390908 576.89948,214.17489 c -26.73679,23.10735 -67.32234,63.6929 -90.42968,90.42969 -123.78399,143.22664 -198.10353,322.64615 -211.85156,511.45117 -2.56641,35.24513 -2.56567,92.64364 0.002,127.88868 8.76722,120.34537 42.19767,237.61637 98.20312,344.49607 16.40207,31.3014 60.39206,55.5586 95.73828,55.5586 H 1836.0264 c 35.3462,0 79.3382,-24.2572 95.7403,-55.5586 56.0054,-106.8797 89.4339,-224.1507 98.2011,-344.49607 2.5676,-35.24504 2.5684,-92.64355 0,-127.88868 -13.7461,-188.80502 -88.0636,-368.22453 -211.8476,-511.45117 -23.1074,-26.73679 -63.6929,-67.32234 -90.4297,-90.42969 C 1584.4638,90.390908 1405.0424,16.073316 1216.2374,2.3252853 c -35.2451,-2.56641008 -92.6416,-2.56641008 -127.8867,0 z M 1431.2159,658.42099 c 25.6404,1.00237 50.2947,14.35013 64.875,37.90234 23.3283,37.68354 11.7714,86.80053 -25.9121,110.12891 l -435.2481,269.44526 -0.084,0.053 c -16.4865,10.2062 -35.16352,13.7352 -52.91013,11.3203 -2.53477,-0.3449 -5.05123,-0.8131 -7.53906,-1.3985 -2.48872,-0.5855 -4.9456,-1.2875 -7.36914,-2.1093 -16.96155,-5.7514 -32.10633,-17.2381 -42.3125,-33.7247 -0.0232,-0.037 -0.0468,-0.075 -0.0703,-0.1132 L 840.49714,913.99716 c -23.32841,-37.68354 -11.77143,-86.80248 25.91211,-110.13086 37.68354,-23.32838 86.80242,-11.7714 110.13086,25.91211 l 42.10939,68.02148 367.3125,-227.38867 c 14.1313,-8.74814 29.8696,-12.59165 45.2539,-11.99023 z"
           inkscape:label="Sun" />
        <path
           id="path39"
           style="display:inline;vector-effect:non-scaling-stroke;fill:#171fa7;fill-opacity:1;fill-rule:evenodd;stroke:none;stroke-width:0.322086;-inkscape-stroke:hairline"
           d="M 1542.9004,1376 H 217.09961 c -35.34622,0 -48.02391,23.8418 -26.03736,51.5076 5.52361,6.9504 38.76926,12.4924 74.11548,12.4924 l 1229.64457,0 c 35.3462,0 82.4492,-21.984 102.8971,-50.8056 5.1371,-7.2407 -19.4728,-13.1944 -54.819,-13.1944 z m -106.3965,128 -1113.00781,0 c -35.34622,0 -43.82029,20.407 -17.01761,43.4379 13.50651,11.6058 53.48975,20.5621 88.83597,20.5621 h 969.37105 c 35.3462,0 86.5878,-17.7047 112.5422,-41.6876 13.079,-12.0855 -5.3776,-22.3124 -40.7238,-22.3124 z m -163.4531,128 H 944.00001 486.94922 c -35.34622,0 -39.60183,15.1132 -8.14773,31.2204 106.24639,54.4073 221.05679,85.8351 337.20162,94.2706 35.24566,2.5598 92.64211,2.5638 127.88811,0.01 116.16188,-8.421 231.00818,-39.8431 337.30748,-94.279 31.454,-16.1075 27.1983,-31.2207 -8.1479,-31.2207 z"
           sodipodi:nodetypes="cccccccccccccsc"
           inkscape:label="Ripples"
           inkscape:original-d="M 1606.9004,1376 H 153.09961 c 15.04698,22.0516 31.08961,43.407 48.07812,64 H 1558.8223 c 16.9885,-20.593 33.0311,-41.9484 48.0781,-64 z m -106.3965,128 H 259.49609 c 22.75465,22.6268 46.72992,43.9921 71.81836,64 H 1428.6855 c 25.0885,-20.0079 49.0637,-41.3732 71.8184,-64 z m -163.4531,128 H 880.00001 422.94922 c 140.15988,85.1865 298.57,127.8013 456.99779,127.812 158.42779,0.011 316.87329,-42.5825 457.10379,-127.812 z"
           inkscape:path-effect="#path-effect53"
           transform="translate(272.29452,-6.9329053e-5)" />
      </g>
    </g>
  </g>
</svg>
