<svg xmlns="http://www.w3.org/2000/svg" width="2520" height="900" viewBox="0 0 2520 900" font-family="Arial, sans-serif">
<rect width="2520" height="900" fill="#F0F4F8"/>
<text x="40" y="36" font-size="22" font-weight="bold" fill="#0A2F40">TripReady v1.2 — UI Color Reference Mockup</text>
<text x="40" y="56" font-size="13" fill="#1B5976">Ocean · Dusk (default theme) · Light mode · All color tokens annotated</text>
<!-- Screen: Dashboard -->
<rect x="44" y="114" width="320" height="620" rx="20" fill="#00000022"/>
<rect x="40" y="110" width="320" height="620" rx="20" fill="#FFFFFF" stroke="#CBD5E0" stroke-width="2"/>
<rect x="42" y="112" width="316" height="616" rx="18" fill="#F2FAFE"/>
<rect x="42" y="112" width="316" height="24" rx="18" fill="#0A2F40"/>
<text x="52" y="127" font-size="9" fill="white" opacity="0.7">9:41</text>
<text x="320" y="127" font-size="9" fill="white" opacity="0.7">●●●</text>
<rect x="42" y="136" width="316" height="44" fill="#0A2F40"/>
<text x="56" y="163" font-size="15" font-weight="bold" fill="white">TripReady</text>
<rect x="48" y="188" width="300" height="90" rx="12" fill="#0A2F40" stroke="#B7E2FA" stroke-width="1"/>
<rect x="56" y="196" width="70" height="18" rx="9" fill="#F7B750"/>
<text x="91" y="208" font-size="8" fill="#0A2F40" font-weight="bold" text-anchor="middle">ACTIVE TRIP</text>
<text x="56" y="228" font-size="13" fill="white" font-weight="bold" text-anchor="start">Paris Adventure</text>
<text x="56" y="244" font-size="10" fill="#F7B750" font-weight="normal" text-anchor="start">14 days to go</text>
<text x="56" y="260" font-size="9" fill="white" font-weight="normal" text-anchor="start">Jun 15 – Jul 1</text>
<rect x="48" y="286" width="96" height="52" rx="12" fill="#FFFFFF" stroke="#B7E2FA" stroke-width="1"/>
<text x="56" y="304" font-size="14" fill="#1B5976" font-weight="normal" text-anchor="start">📦</text>
<text x="56" y="318" font-size="12" fill="#257599" font-weight="bold" text-anchor="start">8/12</text>
<text x="56" y="330" font-size="9" fill="#1B5976" font-weight="normal" text-anchor="start">Packed</text>
<rect x="148" y="286" width="96" height="52" rx="12" fill="#FFFFFF" stroke="#B7E2FA" stroke-width="1"/>
<text x="156" y="304" font-size="14" fill="#1B5976" font-weight="normal" text-anchor="start">✓</text>
<text x="156" y="318" font-size="12" fill="#34A466" font-weight="bold" text-anchor="start">3/5</text>
<text x="156" y="330" font-size="9" fill="#1B5976" font-weight="normal" text-anchor="start">Tasks</text>
<rect x="248" y="286" width="96" height="52" rx="12" fill="#FFFFFF" stroke="#B7E2FA" stroke-width="1"/>
<text x="256" y="304" font-size="14" fill="#1B5976" font-weight="normal" text-anchor="start">$</text>
<text x="256" y="318" font-size="12" fill="#F23D61" font-weight="bold" text-anchor="start">$420</text>
<text x="256" y="330" font-size="9" fill="#1B5976" font-weight="normal" text-anchor="start">Spent</text>
<rect x="48" y="346" width="300" height="38" rx="12" fill="#FFFFFF" stroke="#B7E2FA" stroke-width="1"/>
<text x="56" y="360" font-size="10" fill="#05202D" font-weight="bold" text-anchor="start">Packing Progress</text>
<rect x="56" y="366" width="272" height="8" rx="4" fill="#B7E2FA"/>
<rect x="56" y="366" width="179" height="8" rx="4" fill="#257599"/>
<text x="48" y="406" font-size="9" fill="#257599" font-weight="bold" text-anchor="start">QUICK STATS</text>
<rect x="42" y="678" width="316" height="52" fill="#0A2F40"/>
<rect x="60" y="682" width="44" height="24" rx="12" fill="#3397C5"/>
<text x="82" y="699" font-size="14" fill="whiteff" text-anchor="middle">⊞</text>
<text x="82" y="722" font-size="8" fill="whiteff" text-anchor="middle">Dashboard</text>
<text x="162" y="699" font-size="14" fill="white77" text-anchor="middle">✈</text>
<text x="162" y="722" font-size="8" fill="white77" text-anchor="middle">Trips</text>
<text x="242" y="699" font-size="14" fill="white77" text-anchor="middle">⊡</text>
<text x="242" y="722" font-size="8" fill="white77" text-anchor="middle">Archive</text>
<text x="322" y="699" font-size="14" fill="white77" text-anchor="middle">⚙</text>
<text x="322" y="722" font-size="8" fill="white77" text-anchor="middle">Settings</text>
<text x="200" y="748" font-size="12" font-weight="bold" fill="#0A2F40" text-anchor="middle">1. Dashboard</text>
<!-- Screen: Trips -->
<rect x="424" y="114" width="320" height="620" rx="20" fill="#00000022"/>
<rect x="420" y="110" width="320" height="620" rx="20" fill="#FFFFFF" stroke="#CBD5E0" stroke-width="2"/>
<rect x="422" y="112" width="316" height="616" rx="18" fill="#F2FAFE"/>
<rect x="422" y="112" width="316" height="24" rx="18" fill="#0A2F40"/>
<text x="432" y="127" font-size="9" fill="white" opacity="0.7">9:41</text>
<text x="700" y="127" font-size="9" fill="white" opacity="0.7">●●●</text>
<rect x="422" y="136" width="316" height="44" fill="#0A2F40"/>
<text x="436" y="163" font-size="15" font-weight="bold" fill="white">My Trips</text>
<rect x="422" y="180" width="316" height="36" fill="#FFFFFF" stroke="#B7E2FA" stroke-width="1"/>
<rect x="428" y="184" width="152" height="28" rx="8" fill="#257599"/>
<text x="504" y="201" font-size="10" fill="white" font-weight="bold" text-anchor="middle">Upcoming</text>
<text x="656" y="201" font-size="10" fill="#1B5976" font-weight="normal" text-anchor="middle">Past</text>
<rect x="428" y="224" width="300" height="72" rx="12" fill="#FFFFFF" stroke="#B7E2FA" stroke-width="1"/>
<rect x="680" y="232" width="48" height="16" rx="8" fill="#F7B750"/>
<text x="704" y="243" font-size="8" fill="#0A2F40" font-weight="bold" text-anchor="middle">ACTIVE</text>
<text x="436" y="246" font-size="12" fill="#05202D" font-weight="bold" text-anchor="start">Paris Adventure</text>
<text x="436" y="262" font-size="9" fill="#257599">✈  France 🇫🇷</text>
<text x="436" y="276" font-size="9" fill="#1B5976" font-weight="normal" text-anchor="start">Jun 15 – Jul 1</text>
<text x="712" y="268" font-size="16" fill="#40B8EF">›</text>
<rect x="428" y="304" width="300" height="72" rx="12" fill="#FFFFFF" stroke="#B7E2FA" stroke-width="1"/>
<text x="436" y="326" font-size="12" fill="#05202D" font-weight="bold" text-anchor="start">Tokyo Trip</text>
<text x="436" y="342" font-size="9" fill="#257599">✈  Japan 🇯🇵</text>
<text x="436" y="356" font-size="9" fill="#1B5976" font-weight="normal" text-anchor="start">Sep 3 – Sep 20</text>
<text x="712" y="348" font-size="16" fill="#40B8EF">›</text>
<circle cx="710" cy="650" r="22" fill="#F7B750"/>
<text x="710" y="656" font-size="20" fill="#0A2F40" text-anchor="middle">+</text>
<rect x="422" y="678" width="316" height="52" fill="#0A2F40"/>
<text x="462" y="699" font-size="14" fill="white77" text-anchor="middle">⊞</text>
<text x="462" y="722" font-size="8" fill="white77" text-anchor="middle">Dashboard</text>
<rect x="520" y="682" width="44" height="24" rx="12" fill="#3397C5"/>
<text x="542" y="699" font-size="14" fill="whiteff" text-anchor="middle">✈</text>
<text x="542" y="722" font-size="8" fill="whiteff" text-anchor="middle">Trips</text>
<text x="622" y="699" font-size="14" fill="white77" text-anchor="middle">⊡</text>
<text x="622" y="722" font-size="8" fill="white77" text-anchor="middle">Archive</text>
<text x="702" y="699" font-size="14" fill="white77" text-anchor="middle">⚙</text>
<text x="702" y="722" font-size="8" fill="white77" text-anchor="middle">Settings</text>
<text x="580" y="748" font-size="12" font-weight="bold" fill="#0A2F40" text-anchor="middle">2. Trips List</text>
<!-- Screen: Trip Detail -->
<rect x="804" y="114" width="320" height="620" rx="20" fill="#00000022"/>
<rect x="800" y="110" width="320" height="620" rx="20" fill="#FFFFFF" stroke="#CBD5E0" stroke-width="2"/>
<rect x="802" y="112" width="316" height="616" rx="18" fill="#F2FAFE"/>
<rect x="802" y="112" width="316" height="24" rx="18" fill="#0A2F40"/>
<text x="812" y="127" font-size="9" fill="white" opacity="0.7">9:41</text>
<text x="1080" y="127" font-size="9" fill="white" opacity="0.7">●●●</text>
<rect x="802" y="136" width="316" height="44" fill="#0A2F40"/>
<text x="816" y="163" font-size="15" font-weight="bold" fill="white">Paris Adventure</text>
<rect x="808" y="184" width="300" height="80" rx="12" fill="#0A2F40" stroke="#B7E2FA" stroke-width="1"/>
<text x="816" y="204" font-size="14" fill="white" font-weight="bold" text-anchor="start">Paris Adventure</text>
<text x="816" y="222" font-size="10" fill="#F7B750">14 days remaining</text>
<text x="816" y="240" font-size="9" fill="white" font-weight="normal" text-anchor="start">Jun 15 – Jul 1, 2025</text>
<text x="816" y="254" font-size="9" fill="white" font-weight="normal" text-anchor="start">France 🇫🇷</text>
<rect x="808" y="270" width="96" height="48" rx="12" fill="#FFFFFF" stroke="#B7E2FA" stroke-width="1"/>
<text x="816" y="288" font-size="12" fill="#1B5976" font-weight="normal" text-anchor="start">📦</text>
<text x="816" y="302" font-size="11" fill="#257599" font-weight="bold" text-anchor="start">8/12</text>
<text x="816" y="313" font-size="8" fill="#1B5976" font-weight="normal" text-anchor="start">Packed</text>
<rect x="908" y="270" width="96" height="48" rx="12" fill="#FFFFFF" stroke="#B7E2FA" stroke-width="1"/>
<text x="916" y="288" font-size="12" fill="#1B5976" font-weight="normal" text-anchor="start">✓</text>
<text x="916" y="302" font-size="11" fill="#34A466" font-weight="bold" text-anchor="start">3/5</text>
<text x="916" y="313" font-size="8" fill="#1B5976" font-weight="normal" text-anchor="start">Tasks</text>
<rect x="1008" y="270" width="96" height="48" rx="12" fill="#FFFFFF" stroke="#B7E2FA" stroke-width="1"/>
<text x="1016" y="288" font-size="12" fill="#1B5976" font-weight="normal" text-anchor="start">$</text>
<text x="1016" y="302" font-size="11" fill="#F7B750" font-weight="bold" text-anchor="start">420</text>
<text x="1016" y="313" font-size="8" fill="#1B5976" font-weight="normal" text-anchor="start">Spent</text>
<rect x="808" y="326" width="72" height="36" rx="8" fill="#257599" opacity="1"/>
<text x="844" y="340" font-size="10" fill="white" font-weight="normal" text-anchor="middle">📦</text>
<text x="844" y="354" font-size="7" fill="white" font-weight="bold" text-anchor="middle">Packing</text>
<rect x="883" y="326" width="72" height="36" rx="8" fill="#34A466" opacity="0.15"/>
<text x="919" y="340" font-size="10" fill="#34A466" font-weight="normal" text-anchor="middle">✓</text>
<text x="919" y="354" font-size="7" fill="#34A466" font-weight="bold" text-anchor="middle">Tasks</text>
<rect x="958" y="326" width="72" height="36" rx="8" fill="#0A2F40" opacity="0.15"/>
<text x="994" y="340" font-size="10" fill="#0A2F40" font-weight="normal" text-anchor="middle">🏠</text>
<text x="994" y="354" font-size="7" fill="#0A2F40" font-weight="bold" text-anchor="middle">Addresses</text>
<rect x="1033" y="326" width="72" height="36" rx="8" fill="#F7B750" opacity="0.15"/>
<text x="1069" y="340" font-size="10" fill="#F7B750" font-weight="normal" text-anchor="middle">📄</text>
<text x="1069" y="354" font-size="7" fill="#F7B750" font-weight="bold" text-anchor="middle">Docs</text>
<rect x="808" y="370" width="300" height="30" rx="6" fill="#FFFFFF" stroke="#B7E2FA" stroke-width="1"/>
<rect x="814" y="377" width="16" height="16" rx="4" fill="none" stroke="#34A466" stroke-width="2"/>
<text x="815" y="389" font-size="12" fill="#34A466">✓</text>
<text x="838" y="389" font-size="10" fill="#1B5976" font-weight="normal" text-anchor="start">Passport</text>
<rect x="808" y="404" width="300" height="30" rx="6" fill="#FFFFFF" stroke="#B7E2FA" stroke-width="1"/>
<rect x="814" y="411" width="16" height="16" rx="4" fill="none" stroke="#34A466" stroke-width="2"/>
<text x="815" y="423" font-size="12" fill="#34A466">✓</text>
<text x="838" y="423" font-size="10" fill="#1B5976" font-weight="normal" text-anchor="start">Laptop</text>
<rect x="808" y="438" width="300" height="30" rx="6" fill="#FFFFFF" stroke="#B7E2FA" stroke-width="1"/>
<rect x="814" y="445" width="16" height="16" rx="4" fill="none" stroke="#40B8EF" stroke-width="2"/>
<text x="838" y="457" font-size="10" fill="#05202D" font-weight="normal" text-anchor="start">Charger</text>
<rect x="808" y="472" width="300" height="30" rx="6" fill="#FFFFFF" stroke="#B7E2FA" stroke-width="1"/>
<rect x="814" y="479" width="16" height="16" rx="4" fill="none" stroke="#40B8EF" stroke-width="2"/>
<text x="838" y="491" font-size="10" fill="#05202D" font-weight="normal" text-anchor="start">Sunscreen</text>
<rect x="802" y="678" width="316" height="52" fill="#0A2F40"/>
<text x="842" y="699" font-size="14" fill="white77" text-anchor="middle">⊞</text>
<text x="842" y="722" font-size="8" fill="white77" text-anchor="middle">Dashboard</text>
<rect x="900" y="682" width="44" height="24" rx="12" fill="#3397C5"/>
<text x="922" y="699" font-size="14" fill="whiteff" text-anchor="middle">✈</text>
<text x="922" y="722" font-size="8" fill="whiteff" text-anchor="middle">Trips</text>
<text x="1002" y="699" font-size="14" fill="white77" text-anchor="middle">⊡</text>
<text x="1002" y="722" font-size="8" fill="white77" text-anchor="middle">Archive</text>
<text x="1082" y="699" font-size="14" fill="white77" text-anchor="middle">⚙</text>
<text x="1082" y="722" font-size="8" fill="white77" text-anchor="middle">Settings</text>
<text x="960" y="748" font-size="12" font-weight="bold" fill="#0A2F40" text-anchor="middle">3. Trip Detail</text>
<!-- Screen: Settings -->
<rect x="1184" y="114" width="320" height="620" rx="20" fill="#00000022"/>
<rect x="1180" y="110" width="320" height="620" rx="20" fill="#FFFFFF" stroke="#CBD5E0" stroke-width="2"/>
<rect x="1182" y="112" width="316" height="616" rx="18" fill="#F2FAFE"/>
<rect x="1182" y="112" width="316" height="24" rx="18" fill="#0A2F40"/>
<text x="1192" y="127" font-size="9" fill="white" opacity="0.7">9:41</text>
<text x="1460" y="127" font-size="9" fill="white" opacity="0.7">●●●</text>
<rect x="1182" y="136" width="316" height="44" fill="#0A2F40"/>
<text x="1196" y="163" font-size="15" font-weight="bold" fill="white">Settings</text>
<text x="1190" y="196" font-size="9" fill="#257599" font-weight="bold" letter-spacing="1">APPEARANCE</text>
<rect x="1186" y="202" width="304" height="64" rx="12" fill="#FFFFFF" stroke="#B7E2FA" stroke-width="1"/>
<rect x="1194" y="212" width="32" height="32" rx="8" fill="#257599" opacity="0.12"/>
<text x="1210" y="232" font-size="14" fill="#257599" text-anchor="middle">🎨</text>
<text x="1234" y="224" font-size="10" fill="#05202D" font-weight="bold" text-anchor="start">Select Theme</text>
<rect x="1234" y="232" width="48" height="26" rx="6" fill="#F2FAFE" stroke="#257599" stroke-width="1"/>
<text x="1258" y="249" font-size="8" fill="#257599" font-weight="bold" text-anchor="middle">Light</text>
<rect x="1286" y="232" width="48" height="26" rx="6" fill="#257599" stroke="#257599" stroke-width="2"/>
<text x="1310" y="249" font-size="8" fill="white" font-weight="bold" text-anchor="middle">Dark</text>
<rect x="1338" y="232" width="48" height="26" rx="6" fill="#F2FAFE" stroke="#257599" stroke-width="1"/>
<text x="1362" y="249" font-size="8" fill="#257599" font-weight="bold" text-anchor="middle">System</text>
<rect x="1186" y="274" width="304" height="64" rx="12" fill="#FFFFFF" stroke="#B7E2FA" stroke-width="1"/>
<rect x="1194" y="284" width="32" height="32" rx="8" fill="#257599" opacity="0.12"/>
<text x="1210" y="304" font-size="14" fill="#257599" text-anchor="middle">Aa</text>
<text x="1234" y="296" font-size="10" fill="#05202D" font-weight="bold" text-anchor="start">Text Size</text>
<rect x="1234" y="304" width="52" height="26" rx="6" fill="#F2FAFE" stroke="#257599" stroke-width="1"/>
<text x="1260" y="316" font-size="8" fill="#257599" font-weight="bold" text-anchor="middle">A</text>
<text x="1260" y="326" font-size="7" fill="#257599" font-weight="normal" text-anchor="middle">Small</text>
<rect x="1292" y="304" width="52" height="26" rx="6" fill="#257599" stroke="#257599" stroke-width="2"/>
<text x="1318" y="316" font-size="10" fill="white" font-weight="bold" text-anchor="middle">A</text>
<text x="1318" y="326" font-size="7" fill="white" font-weight="normal" text-anchor="middle">Normal</text>
<rect x="1350" y="304" width="52" height="26" rx="6" fill="#F2FAFE" stroke="#257599" stroke-width="1"/>
<text x="1376" y="316" font-size="12" fill="#257599" font-weight="bold" text-anchor="middle">A</text>
<text x="1376" y="326" font-size="7" fill="#257599" font-weight="normal" text-anchor="middle">Large</text>
<rect x="1186" y="346" width="304" height="90" rx="12" fill="#FFFFFF" stroke="#B7E2FA" stroke-width="1"/>
<rect x="1194" y="354" width="32" height="32" rx="8" fill="#257599" opacity="0.12"/>
<text x="1210" y="374" font-size="14" fill="#257599" text-anchor="middle">🎨</text>
<text x="1234" y="366" font-size="10" fill="#05202D" font-weight="bold" text-anchor="start">Color Theme</text>
<rect x="1234" y="376" width="56" height="22" rx="6" fill="#257599" opacity="1"/>
<text x="1262" y="384" font-size="6" fill="white" font-weight="normal" text-anchor="middle">Ocean·</text>
<text x="1262" y="393" font-size="6" fill="white" font-weight="normal" text-anchor="middle">Dusk</text>
<rect x="1296" y="376" width="56" height="22" rx="6" fill="#124259" opacity="0.15"/>
<text x="1324" y="384" font-size="6" fill="#124259" font-weight="normal" text-anchor="middle">Ocean·</text>
<text x="1324" y="393" font-size="6" fill="#124259" font-weight="normal" text-anchor="middle">Mid</text>
<rect x="1358" y="376" width="56" height="22" rx="6" fill="#8B6321" opacity="0.15"/>
<text x="1386" y="384" font-size="6" fill="#8B6321" font-weight="normal" text-anchor="middle">Amber·</text>
<text x="1386" y="393" font-size="6" fill="#8B6321" font-weight="normal" text-anchor="middle">Sun</text>
<rect x="1234" y="406" width="56" height="22" rx="6" fill="#3757EB" opacity="0.15"/>
<text x="1262" y="414" font-size="6" fill="#3757EB" font-weight="normal" text-anchor="middle">Cobalt</text>
<text x="1262" y="423" font-size="6" fill="#3757EB" font-weight="normal" text-anchor="middle"></text>
<rect x="1296" y="406" width="56" height="22" rx="6" fill="#277E4E" opacity="0.15"/>
<text x="1324" y="414" font-size="6" fill="#277E4E" font-weight="normal" text-anchor="middle">Grass</text>
<text x="1324" y="423" font-size="6" fill="#277E4E" font-weight="normal" text-anchor="middle"></text>
<rect x="1358" y="406" width="56" height="22" rx="6" fill="#922DCF" opacity="0.15"/>
<text x="1386" y="414" font-size="6" fill="#922DCF" font-weight="normal" text-anchor="middle">Orchid</text>
<text x="1386" y="423" font-size="6" fill="#922DCF" font-weight="normal" text-anchor="middle"></text>
<rect x="1182" y="678" width="316" height="52" fill="#0A2F40"/>
<text x="1222" y="699" font-size="14" fill="white77" text-anchor="middle">⊞</text>
<text x="1222" y="722" font-size="8" fill="white77" text-anchor="middle">Dashboard</text>
<text x="1302" y="699" font-size="14" fill="white77" text-anchor="middle">✈</text>
<text x="1302" y="722" font-size="8" fill="white77" text-anchor="middle">Trips</text>
<text x="1382" y="699" font-size="14" fill="white77" text-anchor="middle">⊡</text>
<text x="1382" y="722" font-size="8" fill="white77" text-anchor="middle">Archive</text>
<rect x="1440" y="682" width="44" height="24" rx="12" fill="#3397C5"/>
<text x="1462" y="699" font-size="14" fill="whiteff" text-anchor="middle">⚙</text>
<text x="1462" y="722" font-size="8" fill="whiteff" text-anchor="middle">Settings</text>
<text x="1340" y="748" font-size="12" font-weight="bold" fill="#0A2F40" text-anchor="middle">4. Settings</text>
<!-- Screen: Receipts -->
<rect x="1564" y="114" width="320" height="620" rx="20" fill="#00000022"/>
<rect x="1560" y="110" width="320" height="620" rx="20" fill="#FFFFFF" stroke="#CBD5E0" stroke-width="2"/>
<rect x="1562" y="112" width="316" height="616" rx="18" fill="#F2FAFE"/>
<rect x="1562" y="112" width="316" height="24" rx="18" fill="#0A2F40"/>
<text x="1572" y="127" font-size="9" fill="white" opacity="0.7">9:41</text>
<text x="1840" y="127" font-size="9" fill="white" opacity="0.7">●●●</text>
<rect x="1562" y="136" width="316" height="44" fill="#0A2F40"/>
<text x="1576" y="163" font-size="15" font-weight="bold" fill="white">Receipts</text>
<rect x="1568" y="186" width="300" height="70" rx="12" fill="#0A2F40" stroke="#B7E2FA" stroke-width="1"/>
<text x="1576" y="204" font-size="11" fill="white" font-weight="bold" text-anchor="start">Budget Overview</text>
<rect x="1576" y="212" width="272" height="8" rx="4" fill="rgba(255,255,255,0.2)"/>
<rect x="1576" y="212" width="168" height="8" rx="4" fill="#F7B750"/>
<text x="1576" y="236" font-size="9" fill="#F7B750">$420 spent</text>
<text x="1856" y="236" font-size="9" fill="rgba(255,255,255,0.6)" text-anchor="end">$680 left</text>
<rect x="1568" y="262" width="96" height="22" rx="11" fill="#E67E22" opacity="0.15"/>
<text x="1616" y="276" font-size="8" fill="#E67E22" font-weight="bold" text-anchor="middle">Food</text>
<rect x="1668" y="262" width="96" height="22" rx="11" fill="#257599" opacity="0.15"/>
<text x="1716" y="276" font-size="8" fill="#257599" font-weight="bold" text-anchor="middle">Transport</text>
<rect x="1768" y="262" width="96" height="22" rx="11" fill="#34A466" opacity="0.15"/>
<text x="1816" y="276" font-size="8" fill="#34A466" font-weight="bold" text-anchor="middle">Hotel</text>
<rect x="1568" y="292" width="300" height="46" rx="12" fill="#FFFFFF" stroke="#B7E2FA" stroke-width="1"/>
<rect x="1574" y="300" width="28" height="28" rx="8" fill="#E67E22" opacity="0.15"/>
<text x="1588" y="317" font-size="12" fill="#E67E22" text-anchor="middle">🧾</text>
<text x="1610" y="312" font-size="10" fill="#05202D" font-weight="bold" text-anchor="start">Café Deux Magots</text>
<text x="1610" y="325" font-size="8" fill="#E67E22" font-weight="normal" text-anchor="start">Food</text>
<text x="1852" y="318" font-size="11" fill="#05202D" font-weight="bold" text-anchor="end">€45.00</text>
<rect x="1568" y="344" width="300" height="46" rx="12" fill="#FFFFFF" stroke="#B7E2FA" stroke-width="1"/>
<rect x="1574" y="352" width="28" height="28" rx="8" fill="#257599" opacity="0.15"/>
<text x="1588" y="369" font-size="12" fill="#257599" text-anchor="middle">🧾</text>
<text x="1610" y="364" font-size="10" fill="#05202D" font-weight="bold" text-anchor="start">Metro Pass</text>
<text x="1610" y="377" font-size="8" fill="#257599" font-weight="normal" text-anchor="start">Transport</text>
<text x="1852" y="370" font-size="11" fill="#05202D" font-weight="bold" text-anchor="end">€18.50</text>
<rect x="1568" y="396" width="300" height="46" rx="12" fill="#FFFFFF" stroke="#B7E2FA" stroke-width="1"/>
<rect x="1574" y="404" width="28" height="28" rx="8" fill="#34A466" opacity="0.15"/>
<text x="1588" y="421" font-size="12" fill="#34A466" text-anchor="middle">🧾</text>
<text x="1610" y="416" font-size="10" fill="#05202D" font-weight="bold" text-anchor="start">Hotel Lumière</text>
<text x="1610" y="429" font-size="8" fill="#34A466" font-weight="normal" text-anchor="start">Hotel</text>
<text x="1852" y="422" font-size="11" fill="#05202D" font-weight="bold" text-anchor="end">€180.00</text>
<rect x="1562" y="678" width="316" height="52" fill="#0A2F40"/>
<text x="1602" y="699" font-size="14" fill="white77" text-anchor="middle">⊞</text>
<text x="1602" y="722" font-size="8" fill="white77" text-anchor="middle">Dashboard</text>
<rect x="1660" y="682" width="44" height="24" rx="12" fill="#3397C5"/>
<text x="1682" y="699" font-size="14" fill="whiteff" text-anchor="middle">✈</text>
<text x="1682" y="722" font-size="8" fill="whiteff" text-anchor="middle">Trips</text>
<text x="1762" y="699" font-size="14" fill="white77" text-anchor="middle">⊡</text>
<text x="1762" y="722" font-size="8" fill="white77" text-anchor="middle">Archive</text>
<text x="1842" y="699" font-size="14" fill="white77" text-anchor="middle">⚙</text>
<text x="1842" y="722" font-size="8" fill="white77" text-anchor="middle">Settings</text>
<text x="1720" y="748" font-size="12" font-weight="bold" fill="#0A2F40" text-anchor="middle">5. Receipts</text>
<rect x="1930" y="120" width="320" height="630" rx="12" fill="white" stroke="#CBD5E0" stroke-width="1"/>
<text x="1946" y="144" font-size="13" font-weight="bold" fill="#0A2F40">Color Token Legend</text>
<text x="1946" y="160" font-size="9" fill="#1B5976">Ocean · Dusk · Light mode</text>
<rect x="1946" y="176" width="28" height="22" rx="4" fill="#257599" stroke="#E2E8F0" stroke-width="1"/>
<text x="1984" y="186" font-size="10" font-weight="bold" fill="#05202D">primary</text>
<text x="1984" y="198" font-size="8" fill="#1B5976">Buttons, icons, active states, borders</text>
<rect x="1946" y="214" width="28" height="22" rx="4" fill="#0A2F40" stroke="#E2E8F0" stroke-width="1"/>
<text x="1984" y="224" font-size="10" font-weight="bold" fill="#05202D">primaryDk/navBg</text>
<text x="1984" y="236" font-size="8" fill="#1B5976">AppBar, nav bar, hero cards</text>
<rect x="1946" y="252" width="28" height="22" rx="4" fill="#F7B750" stroke="#E2E8F0" stroke-width="1"/>
<text x="1984" y="262" font-size="10" font-weight="bold" fill="#05202D">accent/amber</text>
<text x="1984" y="274" font-size="8" fill="#1B5976">FAB, badges, highlights, countdown text</text>
<rect x="1946" y="290" width="28" height="22" rx="4" fill="#F2FAFE" stroke="#E2E8F0" stroke-width="1"/>
<text x="1984" y="300" font-size="10" font-weight="bold" fill="#05202D">bg/background</text>
<text x="1984" y="312" font-size="8" fill="#1B5976">Scaffold background</text>
<rect x="1946" y="328" width="28" height="22" rx="4" fill="#FFFFFF" stroke="#E2E8F0" stroke-width="1"/>
<text x="1984" y="338" font-size="10" font-weight="bold" fill="#05202D">surface/cardBg</text>
<text x="1984" y="350" font-size="8" fill="#1B5976">Cards, input fill</text>
<rect x="1946" y="366" width="28" height="22" rx="4" fill="#B7E2FA" stroke="#E2E8F0" stroke-width="1"/>
<text x="1984" y="376" font-size="10" font-weight="bold" fill="#05202D">border/warmGrey</text>
<text x="1984" y="388" font-size="8" fill="#1B5976">Input borders, dividers, chip bg</text>
<rect x="1946" y="404" width="28" height="22" rx="4" fill="#05202D" stroke="#E2E8F0" stroke-width="1"/>
<text x="1984" y="414" font-size="10" font-weight="bold" fill="#05202D">textDark</text>
<text x="1984" y="426" font-size="8" fill="#1B5976">Primary body and heading text</text>
<rect x="1946" y="442" width="28" height="22" rx="4" fill="#1B5976" stroke="#E2E8F0" stroke-width="1"/>
<text x="1984" y="452" font-size="10" font-weight="bold" fill="#05202D">textMid</text>
<text x="1984" y="464" font-size="8" fill="#1B5976">Secondary text, captions</text>
<rect x="1946" y="480" width="28" height="22" rx="4" fill="#40B8EF" stroke="#E2E8F0" stroke-width="1"/>
<text x="1984" y="490" font-size="10" font-weight="bold" fill="#05202D">textLight</text>
<text x="1984" y="502" font-size="8" fill="#1B5976">Disabled text, placeholders</text>
<rect x="1946" y="518" width="28" height="22" rx="4" fill="#34A466" stroke="#E2E8F0" stroke-width="1"/>
<text x="1984" y="528" font-size="10" font-weight="bold" fill="#05202D">success</text>
<text x="1984" y="540" font-size="8" fill="#1B5976">Packed ✓, tasks done, confirm</text>
<rect x="1946" y="556" width="28" height="22" rx="4" fill="#F23D61" stroke="#E2E8F0" stroke-width="1"/>
<text x="1984" y="566" font-size="10" font-weight="bold" fill="#05202D">danger</text>
<text x="1984" y="578" font-size="8" fill="#1B5976">Delete, reset, destructive only</text>
<rect x="1946" y="594" width="28" height="22" rx="4" fill="#3397C5" stroke="#E2E8F0" stroke-width="1"/>
<text x="1984" y="604" font-size="10" font-weight="bold" fill="#05202D">navIndicator</text>
<text x="1984" y="616" font-size="8" fill="#1B5976">Nav bar selected indicator</text>
<text x="1946" y="640" font-size="10" font-weight="bold" fill="#0A2F40">Receipt Category Colors (hardcoded)</text>
<rect x="1946" y="648" width="20" height="14" rx="3" fill="#E67E22"/>
<text x="1970" y="660" font-size="8" fill="#1B5976">Food</text>
<rect x="2018" y="648" width="20" height="14" rx="3" fill="#8E44AD"/>
<text x="2042" y="660" font-size="8" fill="#1B5976">Entertainment</text>
<rect x="2090" y="648" width="20" height="14" rx="3" fill="#E91E63"/>
<text x="2114" y="660" font-size="8" fill="#1B5976">Shopping</text>
<rect x="2162" y="648" width="20" height="14" rx="3" fill="#2196F3"/>
<text x="2186" y="660" font-size="8" fill="#1B5976">Communication</text>
</svg>